<svg id="visual" viewBox="0 0 900 600" width="900" height="600" xmlns="http://www.w3.org/2000/svg" xmlns:xlink="http://www.w3.org/1999/xlink" version="1.1"><rect x="0" y="0" width="900" height="600" fill="#2b2a2a"></rect><path d="M0 408L16.7 407C33.3 406 66.7 404 100 413.7C133.3 423.3 166.7 444.7 200 445.7C233.3 446.7 266.7 427.3 300 422.7C333.3 418 366.7 428 400 435.3C433.3 442.7 466.7 447.3 500 441.2C533.3 435 566.7 418 600 412.8C633.3 407.7 666.7 414.3 700 417.7C733.3 421 766.7 421 800 421.5C833.3 422 866.7 423 883.3 423.5L900 424L900 601L883.3 601C866.7 601 833.3 601 800 601C766.7 601 733.3 601 700 601C666.7 601 633.3 601 600 601C566.7 601 533.3 601 500 601C466.7 601 433.3 601 400 601C366.7 601 333.3 601 300 601C266.7 601 233.3 601 200 601C166.7 601 133.3 601 100 601C66.7 601 33.3 601 16.7 601L0 601Z" fill="#0ba6df"></path><path d="M0 489L16.7 481.7C33.3 474.3 66.7 459.7 100 454C133.3 448.3 166.7 451.7 200 461.2C233.3 470.7 266.7 486.3 300 486C333.3 485.7 366.7 469.3 400 461C433.3 452.7 466.7 452.3 500 455.7C533.3 459 566.7 466 600 468.7C633.3 471.3 666.7 469.7 700 473.2C733.3 476.7 766.7 485.3 800 484C833.3 482.7 866.7 471.3 883.3 465.7L900 460L900 601L883.3 601C866.7 601 833.3 601 800 601C766.7 601 733.3 601 700 601C666.7 601 633.3 601 600 601C566.7 601 533.3 601 500 601C466.7 601 433.3 601 400 601C366.7 601 333.3 601 300 601C266.7 601 233.3 601 200 601C166.7 601 133.3 601 100 601C66.7 601 33.3 601 16.7 601L0 601Z" fill="#a290eb"></path><path d="M0 530L16.7 531.7C33.3 533.3 66.7 536.7 100 538.3C133.3 540 166.7 540 200 538C233.3 536 266.7 532 300 522.8C333.3 513.7 366.7 499.3 400 499.5C433.3 499.7 466.7 514.3 500 517.2C533.3 520 566.7 511 600 506.7C633.3 502.3 666.7 502.7 700 505.2C733.3 507.7 766.7 512.3 800 512C833.3 511.7 866.7 506.3 883.3 503.7L900 501L900 601L883.3 601C866.7 601 833.3 601 800 601C766.7 601 733.3 601 700 601C666.7 601 633.3 601 600 601C566.7 601 533.3 601 500 601C466.7 601 433.3 601 400 601C366.7 601 333.3 601 300 601C266.7 601 233.3 601 200 601C166.7 601 133.3 601 100 601C66.7 601 33.3 601 16.7 601L0 601Z" fill="#fb6cab"></path><path d="M0 529L16.7 529.5C33.3 530 66.7 531 100 530.8C133.3 530.7 166.7 529.3 200 530.5C233.3 531.7 266.7 535.3 300 542.3C333.3 549.3 366.7 559.7 400 563C433.3 566.3 466.7 562.7 500 557C533.3 551.3 566.7 543.7 600 543C633.3 542.3 666.7 548.7 700 554.3C733.3 560 766.7 565 800 568.2C833.3 571.3 866.7 572.7 883.3 573.3L900 574L900 601L883.3 601C866.7 601 833.3 601 800 601C766.7 601 733.3 601 700 601C666.7 601 633.3 601 600 601C566.7 601 533.3 601 500 601C466.7 601 433.3 601 400 601C366.7 601 333.3 601 300 601C266.7 601 233.3 601 200 601C166.7 601 133.3 601 100 601C66.7 601 33.3 601 16.7 601L0 601Z" fill="#fe7743"></path></svg>